<svg width="201" height="187" viewBox="0 0 201 187" fill="none" xmlns="http://www.w3.org/2000/svg">
<path d="M58.3791 112.323L59.2791 110.892L57.2876 109.639C57.2468 109.46 57.2506 109.283 57.2989 109.109C57.3545 108.939 57.4216 108.792 57.5 108.667C57.5554 108.579 57.6867 108.452 57.8939 108.285C58.1012 108.118 58.3548 107.935 58.6549 107.735C58.9596 107.527 59.2859 107.318 59.6338 107.107C59.9891 106.9 60.3434 106.703 60.6967 106.516C61.0574 106.333 61.3899 106.179 61.6944 106.053C62.0108 105.925 62.2756 105.846 62.4889 105.816C62.5872 105.806 62.6763 105.811 62.7562 105.83C62.8406 105.843 62.9195 105.872 62.9929 105.918C63.1029 105.987 63.1927 106.064 63.2623 106.149C63.3318 106.234 63.3831 106.307 63.4159 106.369L60.6966 110.617C60.9093 110.751 61.0986 110.865 61.2646 110.959C61.4426 111.05 61.5315 111.096 61.5315 111.096C61.5315 111.096 61.5227 111.127 61.5051 111.187C61.4921 111.24 61.4486 111.326 61.3748 111.443C61.2797 111.578 61.1733 111.69 61.0554 111.78C60.9422 111.862 60.8342 111.871 60.7315 111.806L60.1704 111.453L59.4503 112.597C59.3903 112.693 59.3318 112.753 59.2747 112.779C59.2297 112.802 59.1425 112.777 59.0131 112.706C58.8912 112.64 58.6798 112.512 58.3791 112.323ZM58.2979 109.108L59.8053 110.056L61.9204 106.963C61.6914 107.034 61.4155 107.147 61.0925 107.303C60.7742 107.45 60.4398 107.624 60.0891 107.823C59.7458 108.027 59.4172 108.24 59.1033 108.462C58.7893 108.685 58.5209 108.9 58.2979 109.108ZM63.4429 115.647C62.9367 115.329 62.6214 114.951 62.4969 114.515C62.3797 114.082 62.4194 113.58 62.6159 113.007C62.8197 112.439 63.1501 111.792 63.6071 111.066C64.2948 109.973 64.9741 109.243 65.645 108.877C66.3204 108.503 67.0102 108.538 67.7144 108.981C68.4259 109.429 68.7668 110.002 68.7371 110.7C68.7148 111.403 68.3805 112.268 67.7343 113.294C67.2358 114.087 66.7534 114.715 66.2871 115.179C65.8328 115.641 65.3736 115.915 64.9094 116.002C64.4452 116.089 63.9563 115.97 63.4429 115.647ZM63.9772 114.847C64.234 115.009 64.4994 115.042 64.7734 114.949C65.0521 114.848 65.3537 114.612 65.6782 114.243C66.0146 113.871 66.3905 113.355 66.806 112.695C67.2768 111.947 67.5625 111.338 67.6632 110.869C67.7758 110.397 67.6413 110.041 67.2599 109.801C66.8418 109.538 66.4103 109.589 65.9655 109.954C65.5207 110.319 65.0398 110.913 64.5228 111.734C64.1443 112.336 63.869 112.838 63.6969 113.242C63.5367 113.643 63.4792 113.97 63.5244 114.224C63.5769 114.482 63.7278 114.69 63.9772 114.847ZM69.2695 119.176L70.1696 117.745L68.1781 116.492C68.1373 116.313 68.141 116.136 68.1893 115.962C68.245 115.792 68.312 115.645 68.3905 115.52C68.4459 115.432 68.5772 115.305 68.7844 115.138C68.9916 114.971 69.2453 114.788 69.5453 114.588C69.8501 114.38 70.1764 114.171 70.5243 113.96C70.8795 113.753 71.2338 113.556 71.5871 113.369C71.9478 113.186 72.2804 113.032 72.5849 112.906C72.9013 112.778 73.1661 112.698 73.3793 112.669C73.4776 112.659 73.5667 112.664 73.6466 112.683C73.7311 112.696 73.81 112.725 73.8833 112.771C73.9934 112.84 74.0832 112.917 74.1527 113.002C74.2223 113.087 74.2735 113.16 74.3064 113.221L71.587 117.47C71.7997 117.604 71.9891 117.718 72.1551 117.812C72.333 117.903 72.422 117.949 72.422 117.949C72.422 117.949 72.4132 117.979 72.3955 118.04C72.3825 118.093 72.3391 118.179 72.2652 118.296C72.1702 118.431 72.0637 118.543 71.9459 118.633C71.8326 118.715 71.7246 118.724 71.622 118.659L71.0608 118.306L70.3407 119.45C70.2807 119.546 70.2222 119.606 70.1652 119.632C70.1201 119.655 70.0329 119.63 69.9036 119.559C69.7816 119.493 69.5702 119.365 69.2695 119.176ZM69.1884 115.96L70.6958 116.909L72.8108 113.816C72.5819 113.887 72.3059 114 71.983 114.156C71.6647 114.303 71.3302 114.477 70.9796 114.676C70.6363 114.88 70.3077 115.093 69.9937 115.315C69.6798 115.538 69.4113 115.753 69.1884 115.96Z" fill="white"/>
<path d="M95.7338 62.0272C96.0054 62.4628 97.3107 61.4157 98.2049 60.268C98.8697 59.418 99.7566 58.2693 100.166 57.1441C100.198 57.0403 100.2 56.7703 99.9497 56.5198C99.6997 56.2694 99.4222 56.1067 99.3147 56.0567C98.398 56.8665 97.4069 58.1872 97.0141 58.7499C96.5452 59.4409 95.9525 60.2924 95.7567 61.3105C95.6986 61.6108 95.6411 61.875 95.7338 62.0272Z" fill="#0066FF" stroke="#0066FF" stroke-width="1.5" stroke-linecap="round" stroke-linejoin="round"/>
<path d="M101.74 63.3077C102.083 62.8588 103.294 61.4749 103.519 59.924L103.516 59.936C103.513 59.6685 103.321 59.1025 102.572 58.979C101.823 58.8556 100.116 60.7174 99.357 61.6637C98.8878 62.4035 98.3257 63.3258 98.4055 64.4294C98.4385 64.7554 98.9957 65.0128 99.1943 65.1651C99.7693 65.6291 100.837 64.5478 101.74 63.3077Z" fill="#0066FF" stroke="#0066FF" stroke-width="1.5" stroke-linecap="round" stroke-linejoin="round"/>
<path d="M124.943 76.313C125.244 76.3328 126.144 76.3596 127.536 74.7925C128.542 73.654 130.117 71.9502 130.009 70.3527C129.952 69.9317 129.379 69.4745 128.279 69.5472C126.725 70.5717 125.418 72.0883 124.918 72.8953L124.915 72.8993C124.517 73.5319 123.419 75.273 124.114 76.0023C124.368 76.2565 124.744 76.2956 124.943 76.313Z" fill="#0066FF" stroke="#0066FF" stroke-width="1.5" stroke-linecap="round" stroke-linejoin="round"/>
<path d="M131.843 76.5597C132.339 75.9882 133.24 74.6696 133.689 73.274C133.715 73.0524 133.505 72.557 132.454 72.3483C131.209 73.1725 130.179 74.3977 129.765 75.0406C129.445 75.5433 128.559 76.9526 129.122 77.5323C129.313 77.7383 129.617 77.763 129.778 77.7877C130.005 77.7932 130.717 77.8069 131.843 76.5597Z" fill="#0066FF" stroke="#0066FF" stroke-width="1.5" stroke-linecap="round" stroke-linejoin="round"/>
<g filter="url(#filter0_f_257_3675)">
<path d="M95.7338 62.0272C96.0054 62.4628 97.3107 61.4157 98.2049 60.268C98.8697 59.418 99.7566 58.2693 100.166 57.1441C100.198 57.0403 100.2 56.7703 99.9497 56.5198C99.6997 56.2694 99.4222 56.1067 99.3147 56.0567C98.398 56.8665 97.4069 58.1872 97.0141 58.7499C96.5452 59.4409 95.9525 60.2924 95.7567 61.3105C95.6986 61.6108 95.6411 61.875 95.7338 62.0272Z" fill="#0066FF" stroke="#0066FF" stroke-width="1.5" stroke-linecap="round" stroke-linejoin="round"/>
<path d="M101.74 63.3077C102.083 62.8588 103.294 61.4749 103.519 59.924L103.516 59.936C103.513 59.6685 103.321 59.1025 102.572 58.979C101.823 58.8556 100.116 60.7174 99.357 61.6637C98.8878 62.4035 98.3257 63.3258 98.4055 64.4294C98.4385 64.7554 98.9957 65.0128 99.1943 65.1651C99.7693 65.6291 100.837 64.5478 101.74 63.3077Z" fill="#0066FF" stroke="#0066FF" stroke-width="1.5" stroke-linecap="round" stroke-linejoin="round"/>
<path d="M124.943 76.313C125.244 76.3328 126.144 76.3596 127.536 74.7925C128.542 73.654 130.117 71.9502 130.009 70.3527C129.952 69.9317 129.379 69.4745 128.279 69.5472C126.725 70.5717 125.418 72.0883 124.918 72.8953L124.915 72.8993C124.517 73.5319 123.419 75.273 124.114 76.0023C124.368 76.2565 124.744 76.2956 124.943 76.313Z" fill="#0066FF" stroke="#0066FF" stroke-width="1.5" stroke-linecap="round" stroke-linejoin="round"/>
<path d="M131.843 76.5597C132.339 75.9882 133.24 74.6696 133.689 73.274C133.715 73.0524 133.505 72.557 132.454 72.3483C131.209 73.1725 130.179 74.3977 129.765 75.0406C129.445 75.5433 128.559 76.9526 129.122 77.5323C129.313 77.7383 129.617 77.763 129.778 77.7877C130.005 77.7932 130.717 77.8069 131.843 76.5597Z" fill="#0066FF" stroke="#0066FF" stroke-width="1.5" stroke-linecap="round" stroke-linejoin="round"/>
</g>
<g filter="url(#filter1_f_257_3675)">
<path d="M95.7338 62.0272C96.0054 62.4628 97.3107 61.4157 98.2049 60.268C98.8697 59.418 99.7566 58.2693 100.166 57.1441C100.198 57.0403 100.2 56.7703 99.9497 56.5198C99.6997 56.2694 99.4222 56.1067 99.3147 56.0567C98.398 56.8665 97.4069 58.1872 97.0141 58.7499C96.5452 59.4409 95.9525 60.2924 95.7567 61.3105C95.6986 61.6108 95.6411 61.875 95.7338 62.0272Z" fill="#0066FF" stroke="#0066FF" stroke-width="1.5" stroke-linecap="round" stroke-linejoin="round"/>
<path d="M101.74 63.3077C102.083 62.8588 103.294 61.4749 103.519 59.924L103.516 59.936C103.513 59.6685 103.321 59.1025 102.572 58.979C101.823 58.8556 100.116 60.7174 99.357 61.6637C98.8878 62.4035 98.3257 63.3258 98.4055 64.4294C98.4385 64.7554 98.9957 65.0128 99.1943 65.1651C99.7693 65.6291 100.837 64.5478 101.74 63.3077Z" fill="#0066FF" stroke="#0066FF" stroke-width="1.5" stroke-linecap="round" stroke-linejoin="round"/>
<path d="M124.943 76.313C125.244 76.3328 126.144 76.3596 127.536 74.7925C128.542 73.654 130.117 71.9502 130.009 70.3527C129.952 69.9317 129.379 69.4745 128.279 69.5472C126.725 70.5717 125.418 72.0883 124.918 72.8953L124.915 72.8993C124.517 73.5319 123.419 75.273 124.114 76.0023C124.368 76.2565 124.744 76.2956 124.943 76.313Z" fill="#0066FF" stroke="#0066FF" stroke-width="1.5" stroke-linecap="round" stroke-linejoin="round"/>
<path d="M131.843 76.5597C132.339 75.9882 133.24 74.6696 133.689 73.274C133.715 73.0524 133.505 72.557 132.454 72.3483C131.209 73.1725 130.179 74.3977 129.765 75.0406C129.445 75.5433 128.559 76.9526 129.122 77.5323C129.313 77.7383 129.617 77.763 129.778 77.7877C130.005 77.7932 130.717 77.8069 131.843 76.5597Z" fill="#0066FF" stroke="#0066FF" stroke-width="1.5" stroke-linecap="round" stroke-linejoin="round"/>
</g>
<path d="M163.699 106.242C163.699 106.242 167.611 108.679 180.498 120.997C182.124 122.554 193.553 133.641 192.419 140.378C192.132 142.118 191.357 143.69 191.357 143.69C191.357 143.69 189.784 146.88 186.202 149.15C171.289 158.581 145.436 152.822 145.436 152.822C120.252 147.214 98.7046 138.346 77.4191 128.074C77.4191 128.074 45.4459 112.638 19.1055 87.0969C11.5435 79.7702 9.15765 74.3883 10.3359 70.1425C10.6358 69.0618 11.0806 68.3245 11.4309 67.7902C13.4334 64.611 17.5804 63.1855 32.3635 60.1446C40.3433 58.4985 47.5605 58.423 51.8079 58.7149" stroke="white" stroke-width="1.5" stroke-linecap="round" stroke-linejoin="round"/>
<path d="M165.917 101.904C165.393 102.968 164.294 105.798 162.078 108.093C161.609 108.572 161.086 109.04 160.491 109.446C147.504 118.699 119.236 107.806 97.8235 97.8378C76.411 87.8698 53.5091 76.2061 52.0013 65.7267C51.6748 63.4973 51.7205 61.3102 51.8841 59.5558C52.076 57.3352 52.4234 55.8407 52.4234 55.8407C53.211 52.5899 54.5856 49.6994 57.2857 45.7699C60.4561 41.173 64.7872 34.8937 72.9627 29.2417C75.6958 27.3614 85.8806 20.6981 100.74 19.5815C120.012 18.1219 140.138 27.9849 148.14 34.1797C157.633 41.5046 162.372 49.7832 163.332 51.4939C163.332 51.4939 172.734 68.3361 168.714 92.9349C167.926 97.6822 166.442 100.841 165.917 101.904Z" fill="url(#paint0_linear_257_3675)" stroke="white" stroke-width="1.5" stroke-linecap="round" stroke-linejoin="round"/>
<path d="M39.2369 109.762L16.278 122.072" stroke="white" stroke-width="1.5" stroke-linecap="round" stroke-linejoin="round"/>
<path d="M91.0625 139.829L81.6954 163.755" stroke="white" stroke-width="1.5" stroke-linecap="round" stroke-linejoin="round"/>
<path d="M149.629 157.999L159.61 176.622" stroke="white" stroke-width="1.5" stroke-linecap="round" stroke-linejoin="round"/>
<path d="M8.89113 128.158C10.5184 128.915 12.4772 128.155 13.2661 126.461C14.0551 124.766 13.3755 122.778 11.7482 122.02C10.1209 121.263 8.16218 122.023 7.37321 123.717C6.58425 125.412 7.26384 127.4 8.89113 128.158Z" stroke="white" stroke-width="1.5" stroke-linecap="round" stroke-linejoin="round"/>
<path d="M76.9795 175.187C79.0878 176.169 81.5932 175.254 82.5755 173.143C83.5579 171.033 82.6452 168.527 80.537 167.545C78.4288 166.564 75.9234 167.479 74.941 169.589C73.9586 171.7 74.8713 174.206 76.9795 175.187Z" stroke="white" stroke-width="1.5" stroke-linecap="round" stroke-linejoin="round"/>
<path d="M161.157 185.044C162.81 185.813 164.778 185.09 165.551 183.429C166.325 181.767 165.612 179.795 163.958 179.026C162.304 178.256 160.337 178.979 159.563 180.641C158.789 182.303 159.503 184.274 161.157 185.044Z" stroke="white" stroke-width="1.5" stroke-linecap="round" stroke-linejoin="round"/>
<path d="M147.17 90.8534C139.251 101.753 110.847 96.3903 92.3111 84.3908C88.5944 81.9923 71.4905 70.9065 73.8101 60.6544C75.0909 55.0036 81.762 51.8039 83.482 50.9774C85.6265 49.9563 87.7068 49.3848 89.8429 49.1298C93.9507 48.6303 98.2444 49.3216 103.456 50.1931C104.396 50.3549 105.319 50.5231 106.22 50.7097C120.524 53.5915 129.985 59.3325 132.202 60.713C134.161 61.93 136.006 63.0796 137.698 64.2158C143.234 67.9118 147.249 71.5096 148.715 77.059C148.761 77.2403 148.813 77.4097 148.847 77.5854C149.087 78.5979 150.852 85.7825 147.17 90.8534Z" stroke="white" stroke-width="1.5" stroke-linecap="round" stroke-linejoin="round"/>
<path d="M92.0285 59.0705C92.0285 59.0705 94.9189 54.8772 95.721 54.7131C96.5231 54.549 99.5728 55.6054 101.008 56.8255C102.443 58.0456 107.279 62.8396 107.267 63.4585C107.255 64.0775 103.92 66.346 103.301 66.334C102.683 66.3221 97.8602 65.2393 95.6865 63.9224C92.6627 62.0934 91.6662 58.8401 91.4653 57.9621" stroke="white" stroke-width="1.5" stroke-linecap="round" stroke-linejoin="round"/>
<path d="M122.303 73.7867C122.759 73.1871 124.447 69.6524 126.08 69.1576C127.582 68.6904 129.186 69.1125 131.514 70.9933C133.432 72.5503 136.855 75.5022 139.394 79.3711" stroke="white" stroke-width="1.5" stroke-linecap="round" stroke-linejoin="round"/>
<path d="M121.858 71.6462C121.886 72.429 122.044 73.6794 122.779 74.937C123.237 75.7312 124.196 76.9765 127.319 78.3432C129.101 79.1292 132.094 80.2756 136.145 79.6188" stroke="white" stroke-width="1.5" stroke-linecap="round" stroke-linejoin="round"/>
<path d="M109.536 76.9799C108.106 74.44 108.698 71.1417 109.487 69.4462C109.732 68.9208 114.388 71.4517 114.89 71.7143C116.109 72.3691 116.335 73.5056 115.568 74.3109C114.664 75.2556 109.541 76.968 109.541 76.968L109.536 76.9799Z" stroke="white" stroke-width="1.5" stroke-linecap="round" stroke-linejoin="round"/>
<path d="M125.58 85.0734C99.0499 84.0406 93.8476 72.6114 93.8476 72.6114" stroke="white" stroke-width="1.5" stroke-linecap="round" stroke-linejoin="round"/>
<path d="M123.288 85.029L121.197 87.3548L119.829 84.7276" stroke="white" stroke-width="1.5" stroke-linecap="round" stroke-linejoin="round"/>
<path d="M97.2142 76.7517L94.1087 77.124L94.8102 74.2463" stroke="white" stroke-width="1.5" stroke-linecap="round" stroke-linejoin="round"/>
<path d="M120.136 84.8916L117.755 87.7094L115.937 84.423" stroke="white" stroke-width="1.5" stroke-linecap="round" stroke-linejoin="round"/>
<path d="M87.2524 65.1393C87.2524 65.1393 77.247 57.3871 70.8213 53.0447" stroke="white" stroke-width="1.5" stroke-linecap="round" stroke-linejoin="round"/>
<path d="M66.4563 61.0512L87.3909 65.2179" stroke="white" stroke-width="1.5" stroke-linecap="round" stroke-linejoin="round"/>
<path d="M68.4908 66.4726L87.3209 65.214" stroke="white" stroke-width="1.5" stroke-linecap="round" stroke-linejoin="round"/>
<path d="M135.77 86.5048L161.373 89.1546" stroke="white" stroke-width="1.5" stroke-linecap="round" stroke-linejoin="round"/>
<path d="M135.771 86.5046L154.64 95.4194" stroke="white" stroke-width="1.5" stroke-linecap="round" stroke-linejoin="round"/>
<path d="M135.797 86.604L147.923 99.7457" stroke="white" stroke-width="1.5" stroke-linecap="round" stroke-linejoin="round"/>
<path d="M148.422 76.094C151.406 72.4528 152.748 70.8601 154.28 68.2975C155.812 65.7348 158.549 61.9608 155.288 61.3442C152.038 60.7326 142.752 62.012 138.591 64.687" stroke="white" stroke-width="1.5" stroke-linecap="round" stroke-linejoin="round"/>
<path d="M143.001 65.376C143.001 65.376 150.486 63.6152 153.017 65.1535" stroke="white" stroke-width="1.5" stroke-linecap="round" stroke-linejoin="round"/>
<path d="M148.94 70.8141C148.94 70.8141 153.626 67.2818 153.111 63.4764" stroke="white" stroke-width="1.5" stroke-linecap="round" stroke-linejoin="round"/>
<path d="M92.5737 48.7957C92.2203 42.602 101.521 35.5157 101.521 35.5157C104.781 40.1423 107.357 45.7645 105.234 50.3257" stroke="white" stroke-width="1.5" stroke-linecap="round" stroke-linejoin="round"/>
<path d="M94.8676 47.0705C94.8676 47.0705 95.6899 45.2525 96.7935 43.9314C97.8972 42.6104 101.448 40.8273 101.509 39.8739" stroke="white" stroke-width="1.5" stroke-linecap="round" stroke-linejoin="round"/>
<path d="M102.451 48.4721C102.451 48.4721 103.323 45.4176 101.271 39.0164" stroke="white" stroke-width="1.5" stroke-linecap="round" stroke-linejoin="round"/>
<path d="M88.776 25.1111C86.9634 25.3569 82.1657 27.5255 81.2198 28.0295C80.1174 28.6204 78.6392 29.6757 79.4015 30.6262C81.2553 32.942 90.54 30.3633 90.7862 27.122C90.8596 26.1537 89.691 24.985 88.776 25.1111Z" stroke="white" stroke-width="1.5" stroke-linecap="round" stroke-linejoin="round"/>
<path d="M100.599 23.2501C100.707 23.3295 101.23 23.7329 101.33 24.3605C101.501 25.4279 100.363 26.4382 99.6142 26.8305C98.1573 27.5906 94.2361 27.5958 94.0866 26.0152C93.9202 24.2525 99.4559 22.3693 100.604 23.2381L100.599 23.2501Z" stroke="white" stroke-width="1.5" stroke-linecap="round" stroke-linejoin="round"/>
<path d="M62.7394 82.9729C62.7394 82.9729 43.8533 89.2467 40.63 91.7124C37.7293 93.9214 36.3341 96.9185 39.4019 100.555" stroke="white" stroke-width="1.5" stroke-linecap="round" stroke-linejoin="round"/>
<path d="M107.206 107.146C107.168 115.147 105.788 122.35 104.25 125.935C102.674 129.603 100.857 133.348 98.4021 134.413" stroke="white" stroke-width="1.5" stroke-linecap="round" stroke-linejoin="round"/>
<path d="M151.904 119.192C151.904 119.192 169.426 134.308 172.447 143.937" stroke="white" stroke-width="1.5" stroke-linecap="round" stroke-linejoin="round"/>
<path d="M37.7658 89.7757C38.4098 89.2196 38.6049 88.3894 38.2015 87.9215C37.7981 87.4536 36.9489 87.5251 36.3049 88.0812C35.6608 88.6373 35.4657 89.4674 35.8691 89.9354C36.2725 90.4033 37.1217 90.3318 37.7658 89.7757Z" stroke="white" stroke-width="1.5" stroke-linecap="round" stroke-linejoin="round"/>
<path d="M46.4145 96.4393C47.0584 95.9055 47.2047 95.0189 46.7412 94.459C46.2778 93.8991 45.3801 93.8779 44.7362 94.4117C44.0923 94.9455 43.946 95.8321 44.4095 96.392C44.8729 96.9519 45.7706 96.9731 46.4145 96.4393Z" stroke="white" stroke-width="1.5" stroke-linecap="round" stroke-linejoin="round"/>
<path d="M97.2602 127.606C98.143 128.017 99.1921 127.633 99.6035 126.75C100.015 125.866 99.6327 124.816 98.7498 124.406C97.867 123.995 96.8179 124.378 96.4065 125.261C95.9952 126.145 96.3773 127.195 97.2602 127.606Z" stroke="white" stroke-width="1.5" stroke-linecap="round" stroke-linejoin="round"/>
<path d="M107.3 131.669C108.236 132.104 109.333 131.73 109.75 130.834C110.168 129.937 109.748 128.857 108.812 128.421C107.877 127.986 106.78 128.36 106.362 129.256C105.945 130.153 106.365 131.233 107.3 131.669Z" stroke="white" stroke-width="1.5" stroke-linecap="round" stroke-linejoin="round"/>
<path d="M168.087 144.122C168.702 143.898 168.972 143.09 168.691 142.318C168.41 141.546 167.684 141.102 167.069 141.327C166.454 141.551 166.184 142.359 166.465 143.131C166.746 143.903 167.472 144.347 168.087 144.122Z" stroke="white" stroke-width="1.5" stroke-linecap="round" stroke-linejoin="round"/>
<path d="M175.288 141.778C175.771 141.576 175.937 140.873 175.66 140.209C175.383 139.545 174.766 139.17 174.284 139.373C173.801 139.575 173.634 140.277 173.911 140.941C174.189 141.605 174.805 141.98 175.288 141.778Z" stroke="white" stroke-width="1.5" stroke-linecap="round" stroke-linejoin="round"/>
<defs>
<filter id="filter0_f_257_3675" x="70.9346" y="31.3066" width="87.5068" height="71.2319" filterUnits="userSpaceOnUse" color-interpolation-filters="sRGB">
<feFlood flood-opacity="0" result="BackgroundImageFix"/>
<feBlend mode="normal" in="SourceGraphic" in2="BackgroundImageFix" result="shape"/>
<feGaussianBlur stdDeviation="12" result="effect1_foregroundBlur_257_3675"/>
</filter>
<filter id="filter1_f_257_3675" x="82.9346" y="43.3066" width="63.5068" height="47.2319" filterUnits="userSpaceOnUse" color-interpolation-filters="sRGB">
<feFlood flood-opacity="0" result="BackgroundImageFix"/>
<feBlend mode="normal" in="SourceGraphic" in2="BackgroundImageFix" result="shape"/>
<feGaussianBlur stdDeviation="6" result="effect1_foregroundBlur_257_3675"/>
</filter>
<linearGradient id="paint0_linear_257_3675" x1="111.046" y1="144.568" x2="92.7568" y2="6.91412" gradientUnits="userSpaceOnUse">
<stop stop-opacity="0.41"/>
<stop offset="0.344" stop-color="#4282FF" stop-opacity="0.2"/>
<stop offset="0.78594" stop-color="#A5C9FF" stop-opacity="0"/>
</linearGradient>
</defs>
</svg>
